<?xml version="1.0" encoding="UTF-8"?>
<svg id="a" data-name="Capa 1" xmlns="http://www.w3.org/2000/svg" xmlns:xlink="http://www.w3.org/1999/xlink" viewBox="0 0 332.47 177.62">
  <defs>
    <linearGradient id="b" x1="185.01" y1="140.21" x2="230.88" y2="140.21" gradientUnits="userSpaceOnUse">
      <stop offset="0" stop-color="#c09567"/>
      <stop offset=".15" stop-color="#ac784b"/>
      <stop offset=".43" stop-color="#f5dfb9"/>
      <stop offset=".59" stop-color="#fff8e5"/>
      <stop offset=".73" stop-color="#f5dfb9"/>
      <stop offset=".93" stop-color="#ac784b"/>
      <stop offset=".94" stop-color="#af7d50"/>
      <stop offset="1" stop-color="#c49c6d"/>
    </linearGradient>
    <linearGradient id="c" x1="105.43" y1="140.03" x2="151.32" y2="140.03" xlink:href="#b"/>
    <linearGradient id="d" x1="153.72" y1="136.33" x2="182.81" y2="136.33" xlink:href="#b"/>
    <linearGradient id="e" x1="84.11" y1="168.99" x2="29.94" y2="172.14" xlink:href="#b"/>
    <linearGradient id="f" x1="84.15" y1="169.71" x2="29.98" y2="172.85" xlink:href="#b"/>
    <linearGradient id="g" x1="84.19" y1="170.28" x2="30.01" y2="173.43" xlink:href="#b"/>
    <linearGradient id="h" x1="84.23" y1="171.08" x2="30.06" y2="174.22" xlink:href="#b"/>
    <linearGradient id="i" x1="84.27" y1="171.79" x2="30.1" y2="174.93" xlink:href="#b"/>
    <linearGradient id="j" x1="84.34" y1="172.96" x2="30.17" y2="176.11" xlink:href="#b"/>
    <linearGradient id="k" x1="84.39" y1="173.76" x2="30.21" y2="176.91" xlink:href="#b"/>
    <linearGradient id="l" x1="84.45" y1="174.76" x2="30.27" y2="177.91" xlink:href="#b"/>
    <linearGradient id="m" x1="84.51" y1="175.87" x2="30.34" y2="179.02" xlink:href="#b"/>
    <linearGradient id="n" x1="84.56" y1="176.77" x2="30.39" y2="179.91" xlink:href="#b"/>
    <linearGradient id="o" x1="84.6" y1="177.42" x2="30.43" y2="180.57" xlink:href="#b"/>
    <linearGradient id="p" x1="84.64" y1="178.16" x2="30.47" y2="181.31" xlink:href="#b"/>
    <linearGradient id="q" x1="84.69" y1="178.92" x2="30.51" y2="182.06" xlink:href="#b"/>
    <linearGradient id="r" x1="84.72" y1="179.54" x2="30.55" y2="182.69" xlink:href="#b"/>
    <linearGradient id="s" x1="14.88" y1="59.75" x2="50.09" y2="76.06" gradientTransform="translate(-.08 .3) rotate(-.09)" xlink:href="#b"/>
    <linearGradient id="t" x1="21.28" y1="45.93" x2="56.49" y2="62.23" gradientTransform="translate(-.08 .3) rotate(-.09)" xlink:href="#b"/>
    <linearGradient id="u" x1="13.5" y1="14.57" x2="54.59" y2="33.59" gradientTransform="translate(-.08 .3) rotate(-.09)" xlink:href="#b"/>
    <linearGradient id="v" x1="44.55" y1="10.88" x2="79.76" y2="27.19" gradientTransform="translate(-.08 .3) rotate(-.09)" xlink:href="#b"/>
    <linearGradient id="w" x1="15.27" y1="-2.21" x2="56.36" y2="16.81" gradientTransform="translate(-.08 .3) rotate(-.09)" xlink:href="#b"/>
    <linearGradient id="x" x1="31.5" y1="-37.26" x2="72.59" y2="-18.24" gradientTransform="translate(-.08 .3) rotate(-.09)" xlink:href="#b"/>
    <linearGradient id="y" x1="57.66" y1="4.03" x2="58.84" y2=".49" gradientTransform="translate(-.08 .3) rotate(-.09)" xlink:href="#b"/>
    <linearGradient id="z" x1="193.22" y1="140.08" x2="158.74" y2="137.28" xlink:href="#b"/>
    <linearGradient id="aa" x1="192.87" y1="144.45" x2="158.38" y2="141.65" xlink:href="#b"/>
    <linearGradient id="ab" x1="193.38" y1="138.16" x2="158.89" y2="135.36" xlink:href="#b"/>
  </defs>
  <g>
    <path d="M198.32,141.23c2.07,1.59,4.13,3.22,6.25,4.75.31.23.97.08,1.43-.03,1.58-.38,2.95-.07,3.83,1.33.81,1.3.86,2.89-.37,3.79-.91.67-2.43,1.03-3.54.82-1.59-.31-2.07-1.78-2.06-3.42,0-.65-.36-1.48-.84-1.91-1.27-1.15-2.9-1.94-4.03-3.2-2.67-2.98-5.92-2.42-9.59-1.97,6.05,3.46,8.7,8.71,9.75,15.28-3.94.08-7.05-1.41-9.63-3.85-2.91-2.74-5.22-5.81-3.88-10.31.31-1.05-.04-2.37-.33-3.51-.83-3.31.01-6.22,2.23-8.65,2.12-2.31,4.49-4.39,6.77-6.59,3.25,4.01,1.61,9.83-4.32,16.12,3.38-.14,6.68.35,9.36-2.26.88-.86,2.07-1.41,3.16-2.03,1.41-.81,2.76-1.42,2.77-3.55,0-1.59,2.04-2.62,3.61-2.27,1.73.38,2.86,1.99,2.58,3.68-.28,1.72-2.05,3.31-3.55,2.6-2.6-1.24-4.18.37-6.03,1.44-.84.49-1.62,1.08-2.36,1.86,3.78-.3,7.5.96,11.29-1.05,5.93-3.14,14.97-1.1,19.6,3.89.17.18.24.44.47.89-3,1.97-6.3,3-9.71,2.99-4.54-.01-8.96-.85-12.17-4.68-.34-.4-1.15-.55-1.75-.56-2.91-.06-5.81-.03-8.72-.03l-.21.43ZM220.11,141.01c-.02.22-.05.44-.07.67-3.06-.26-6.13-.52-9.63-.82,4.33,4.42,13.02,5.08,18.29,1.79-4.22-4.33-13.05-5.95-16.97-3.12,2.77.6,5.79.04,8.38,1.47ZM197.52,155.17c-1.19-5.56-3.66-9.91-8.85-12.29.9,1.59,2.03,3.02,3.03,4.54.28.43.2,1.1.29,1.66-.44-.3-.99-.52-1.31-.92-1.22-1.51-2.36-3.08-3.66-4.8-1.52,4.73,4.29,11.15,10.5,11.82ZM187.8,138.89c5.13-1.67,7.94-7.74,6.22-12.69-4.97,3.84-8.8,7.71-7.36,11.71,1.72-1.76,1.9-4.74,4.27-5.97.18.11.36.23.54.34-1.17,2.11-2.35,4.23-3.67,6.6ZM207,151.72c.95-1.23,1.93-1.94,1.89-2.61-.04-.7-.94-1.72-1.66-1.92-1.19-.34-2.1.61-1.99,1.77.07.77.89,1.46,1.75,2.75ZM211.01,132.85c-1.28-.85-1.98-1.68-2.75-1.76-1.16-.12-2.12.8-1.79,1.98.2.71,1.23,1.62,1.92,1.64.68.03,1.4-.94,2.62-1.87Z" fill="url(#b)"/>
    <path d="M146.88,141.21c-3.86-.74-7.14-.74-9.82,2.17-.79.87-1.84,1.5-2.81,2.2-1.17.85-2.22,1.53-1.9,3.43.3,1.77-1.57,3.13-3.42,2.96-1.83-.17-3.05-1.71-2.85-3.61.18-1.73,1.8-3.26,3.45-2.7,1.83.62,2.84-.23,4.02-1.19,1.43-1.16,2.9-2.26,4.28-3.85-3.31,0-6.61-.01-9.92.03-.25,0-.52.38-.72.63-4.52,5.48-14.93,5.96-21.39,1.74-.1-.06-.14-.22-.37-.62.85-.69,1.69-1.5,2.64-2.13,6.15-4.02,12.5-5.22,19.2-1.3.27.16.61.27.92.27,2.88.02,5.76.01,8.78-.37-1.94-1.19-3.85-2.43-5.84-3.53-.37-.2-1.08.09-1.59.28-1.52.56-3.1.53-3.88-.91-.53-1-.61-2.54-.26-3.63.44-1.38,1.89-1.77,3.32-1.48,1.65.33,2.36,1.46,2.61,3.08.1.64.56,1.37,1.08,1.77,1.15.88,2.6,1.4,3.65,2.37,2.93,2.71,6.4,3.15,10.37,2.67-2.55-1.87-4.59-4.04-5.48-7.05-.87-2.95-.59-5.83.58-8.91.61.39,1.08.59,1.43.93,1.83,1.72,3.7,3.41,5.43,5.23,2.44,2.55,3.4,5.53,2.67,9.11-.32,1.59.1,3.32-.06,4.96-.15,1.61-.29,3.36-1.01,4.75-2.34,4.51-6.2,7.08-11.21,7.96-1.24.22-1.75-.02-1.44-1.41,1.29-5.77,3.88-10.65,9.51-13.84ZM107.69,142.4c4.97,3.41,15.33,2.51,17.85-1.75-3.19.28-6.24.55-9.29.82-.04-.34-.08-.67-.11-1.01,2.87-.4,5.74-.81,8.79-1.23-5.59-2.52-13.03-1.09-17.24,3.17ZM149.43,143.12c-1.73,2.13-3.29,4.05-4.85,5.97l-.78-.61c1.36-1.94,2.72-3.89,4.23-6.05-4.76,1.79-8.86,7.7-8.95,12.53,6.07-.85,11.62-6.9,10.35-11.84ZM148.72,139.02c-1.47-2.67-2.66-4.85-3.85-7.02l.7-.43c2,1.55,2.54,4.26,4.2,6.31,1.14-4.24-2.2-7.96-7.53-11.87-1.38,5.46.81,10.14,6.49,13.01ZM128.09,130c-.92,1.26-1.97,2.1-1.85,2.67.17.77,1.25,1.34,1.94,1.99.6-.67,1.61-1.29,1.67-2.01.06-.67-.89-1.42-1.77-2.66ZM132.01,148.71c-1.29-.87-2.06-1.8-2.74-1.73-.7.07-1.3,1.11-1.94,1.73.67.66,1.26,1.72,2.02,1.85.6.11,1.4-.92,2.66-1.85Z" fill="url(#c)"/>
    <path d="M174.23,145.75c-3.75-2.05-7.36-.88-11.06-.67-8.07.46-10.53-7.21-9.04-12.5,1.27-4.54,8.02-7.03,12.32-4.68,1.14.62,1.95.79,3.19.16,4.54-2.28,8.96-1.05,11.59,3.02,2.61,4.05,1.95,9.4-1.82,12.33-1.43,1.11-3.37,1.56-5.18,2.35ZM165.75,130.75c-2.53-1.73-5.73-1.2-7.98,1.31-1.84,2.05-1.65,5.78.41,8.22,1.89,2.24,5.31,2.68,7.92.97-1.21-3.45-2.08-6.95-.35-10.5ZM170.43,141.2c3.33,1.92,6.56,1.29,8.56-1.53,1.79-2.53,1.17-6.11-1.43-8.36-2.37-2.05-5.23-2.12-7.24-.16,2.09,3.27,1.88,6.6.11,10.05ZM167.62,142.38c-.82.11-1.19.09-1.52.21-5.58,1.95-9.76-.73-10.34-6.64-.41-4.2,4.38-8.13,8.44-6.92,4.49,1.33,6.57,5.31,5.16,9.78-.14.45-.11.95-.16,1.43,2.99-3.68,2.16-7.97-1.8-11.06-3.19-2.49-8.42-1.67-11.39,1.77-2.36,2.74-1.71,8.34,1.17,11.26,2.03,2.05,7.32,3.24,10.43.16ZM167.18,131.22c-2.72,2.57-2.11,7.83.95,10.9,2.93,2.94,8.38,3.02,11.15.17,3.42-3.52,3.52-9.09.21-12.15-3.19-2.94-8.03-3.17-10.34-.29.64-.02,1.25-.16,1.83-.38,4.17-1.57,8.39.48,9.64,4.68,1.09,3.68-1.37,8.18-4.89,8.96-4.42.97-8.26-1.66-8.79-6.18-.16-1.4.16-2.86.24-4.29.02-.39,0-.78,0-1.43ZM167.79,138.47c1.47-2.06,1.4-3.48,0-5.36v5.36Z" fill="url(#d)"/>
  </g>
  <g>
    <path d="M85.21,162.62h-5.46v14.78h-1.34v-14.78h-5.44v-1.14h12.24v1.14Z" fill="url(#e)"/>
    <path d="M89.42,177.4h-1.34v-15.92h1.34v15.92Z" fill="url(#f)"/>
    <path d="M102.53,169.77h-7.44v6.49h8.56v1.14h-9.9v-15.92h9.85v1.14h-8.5v6.01h7.44v1.14Z" fill="url(#g)"/>
    <path d="M118.33,177.4h-1.34l-9.15-13.62v13.62h-1.36v-15.92h1.36l9.16,13.63v-13.63h1.33v15.92Z" fill="url(#h)"/>
    <path d="M122.37,177.4v-15.92h4.45c1.3,0,2.47.3,3.51.89,1.03.59,1.84,1.44,2.42,2.55s.87,2.37.87,3.78v1.47c0,1.42-.29,2.68-.86,3.78-.58,1.1-1.39,1.95-2.43,2.55s-2.25.9-3.6.9h-4.35ZM123.72,162.62v13.64h3.02c1.68,0,3.02-.56,4.03-1.67,1.01-1.11,1.52-2.62,1.52-4.51v-1.4c0-1.83-.5-3.3-1.5-4.4-1-1.1-2.31-1.66-3.95-1.66h-3.13Z" fill="url(#i)"/>
    <path d="M145.62,172.93h-7.23l-1.64,4.47h-1.41l6.02-15.92h1.28l6.02,15.92h-1.4l-1.65-4.47ZM138.81,171.79h6.38l-3.19-8.67-3.19,8.67Z" fill="url(#j)"/>
    <path d="M156.46,177.4v-15.92h4.45c1.3,0,2.47.3,3.51.89,1.03.59,1.84,1.44,2.42,2.55s.87,2.37.87,3.78v1.47c0,1.42-.29,2.68-.86,3.78-.58,1.1-1.39,1.95-2.43,2.55s-2.25.9-3.6.9h-4.35ZM157.8,162.62v13.64h3.02c1.68,0,3.02-.56,4.03-1.67,1.01-1.11,1.52-2.62,1.52-4.51v-1.4c0-1.83-.5-3.3-1.5-4.4-1-1.1-2.31-1.66-3.95-1.66h-3.13Z" fill="url(#k)"/>
    <path d="M179.91,169.77h-7.44v6.49h8.56v1.14h-9.9v-15.92h9.85v1.14h-8.5v6.01h7.44v1.14Z" fill="url(#l)"/>
    <path d="M201.15,177.4h-1.34l-9.15-13.62v13.62h-1.36v-15.92h1.36l9.16,13.63v-13.63h1.33v15.92Z" fill="url(#m)"/>
    <path d="M216.96,170.3c0,1.46-.25,2.75-.76,3.86s-1.23,1.96-2.17,2.56-2.03.9-3.26.9c-1.86,0-3.36-.67-4.5-2-1.14-1.33-1.72-3.12-1.72-5.38v-1.64c0-1.45.26-2.73.77-3.85.51-1.12,1.24-1.98,2.18-2.58.94-.6,2.02-.9,3.25-.9s2.3.3,3.24.89,1.66,1.42,2.17,2.5.78,2.33.8,3.75v1.9ZM215.61,168.58c0-1.92-.43-3.42-1.3-4.5-.87-1.09-2.05-1.63-3.56-1.63s-2.66.54-3.54,1.63c-.88,1.09-1.32,2.61-1.32,4.56v1.66c0,1.89.44,3.38,1.31,4.49.87,1.1,2.06,1.66,3.56,1.66s2.71-.54,3.56-1.63c.85-1.09,1.28-2.61,1.28-4.55v-1.68Z" fill="url(#n)"/>
    <path d="M224.9,175.43l.09.34.1-.34,5.01-13.95h1.48l-5.92,15.92h-1.29l-5.93-15.92h1.46l5.01,13.95Z" fill="url(#o)"/>
    <path d="M235.55,177.4h-1.34v-15.92h1.34v15.92Z" fill="url(#p)"/>
    <path d="M248.46,172.93h-7.23l-1.64,4.47h-1.41l6.02-15.92h1.28l6.02,15.92h-1.4l-1.65-4.47ZM241.65,171.79h6.38l-3.19-8.67-3.19,8.67Z" fill="url(#q)"/>
    <path d="M262.86,173.49c0-.88-.31-1.58-.93-2.09-.62-.51-1.75-1-3.4-1.46s-2.85-.97-3.61-1.51c-1.08-.77-1.62-1.79-1.62-3.04s.5-2.21,1.5-2.97,2.28-1.14,3.84-1.14c1.06,0,2,.2,2.84.61.83.41,1.48.98,1.94,1.71.46.73.69,1.54.69,2.44h-1.36c0-1.09-.37-1.96-1.11-2.63-.74-.66-1.74-.99-3-.99s-2.19.27-2.91.82c-.72.54-1.08,1.25-1.08,2.13,0,.81.32,1.47.97,1.98.65.51,1.69.96,3.12,1.35,1.43.39,2.51.8,3.25,1.21s1.29.92,1.66,1.5c.37.58.56,1.27.56,2.07,0,1.25-.5,2.26-1.5,3.02-1,.76-2.32,1.14-3.96,1.14-1.12,0-2.15-.2-3.09-.6-.94-.4-1.65-.96-2.13-1.68-.49-.72-.73-1.55-.73-2.48h1.34c0,1.12.42,2.01,1.26,2.66.84.65,1.95.97,3.35.97,1.24,0,2.23-.27,2.98-.82.75-.55,1.13-1.27,1.13-2.18Z" fill="url(#r)"/>
  </g>
  <g>
    <path d="M59.09,79.98c-.42-.24-.54-.6-.36-1.08.12-.18.42-.36.9-.54.48-.18.99-.24,1.53-.18.54.06,1,.28,1.39.67.39.39.52,1.06.41,2.02-.06.54-.18,1.14-.36,1.79-.18.66-.36,1.35-.54,2.06-.24.84-.52,1.8-.85,2.87-.33,1.08-.51,2.11-.53,3.1-.03.99.14,1.87.5,2.65.36.78,1.11,1.25,2.24,1.43,1.26,0,2.72-.2,4.4-.59,1.67-.39,3.66-1.08,5.96-2.07,2.3-.99,5.01-2.34,8.11-4.05,3.11-1.71,6.78-3.82,11.03-6.34.48-.24.84-.15,1.08.27.24.42.15.75-.27.99-3.94,2.4-7.48,4.42-10.62,6.07-3.14,1.65-5.9,3-8.29,4.05-2.39,1.05-4.45,1.82-6.19,2.3-1.73.48-3.2.72-4.4.72-2.15.12-3.74-.17-4.76-.89-1.02-.72-1.66-1.64-1.93-2.78-.27-1.14-.29-2.41-.05-3.81.24-1.41.53-2.8.89-4.17.3-1.2.53-2.21.71-3.05.18-.84.18-1.32,0-1.44ZM60.07,74.41c-.12-.3-.17-.66-.14-1.08.03-.42.1-.78.22-1.08.18-.36.46-.66.85-.9.39-.24.81-.37,1.26-.41.45-.03.87.04,1.26.22.39.18.67.48.85.9.12.3.15.7.09,1.21-.06.51-.18.94-.36,1.3-.18.3-.46.54-.85.72-.39.18-.79.27-1.21.27s-.81-.09-1.17-.27-.63-.48-.81-.9Z" fill="url(#s)"/>
    <path d="M93.09,80.64c.18-.72.49-1.15.94-1.3.45-.15.9-.12,1.35.09.45.21.79.54,1.03.99.24.45.24.94,0,1.48-.3,1.2-.68,2.48-1.16,3.86-.48,1.38-.86,2.63-1.16,3.77.9-.9,1.9-1.87,3-2.92,1.1-1.05,2.22-2.07,3.36-3.06,1.13-.99,2.25-1.92,3.36-2.79,1.1-.87,2.13-1.6,3.09-2.2,1.79-1.08,3.42-1.77,4.89-2.07,1.46-.3,2.65-.23,3.54.22.9.45,1.45,1.3,1.66,2.55.21,1.26-.04,2.93-.76,5.03-.3,1.08-.55,2.14-.76,3.19-.21,1.05-.21,1.93,0,2.65.21.72.69,1.21,1.44,1.48.75.27,1.9.16,3.45-.32,1.49-.42,3.06-1.01,4.71-1.76,1.64-.75,3.27-1.58,4.89-2.47s3.14-1.81,4.57-2.74c1.43-.93,2.69-1.81,3.76-2.65.18-.12.37-.15.58-.09.21.06.36.16.45.31.09.15.14.33.14.54s-.09.37-.27.49c-1.08.84-2.36,1.74-3.85,2.7-1.49.96-3.08,1.89-4.75,2.79-1.67.9-3.36,1.73-5.07,2.47-1.7.75-3.3,1.37-4.8,1.85-1.79.54-3.33.72-4.62.55-1.29-.18-2.29-.67-3.01-1.48-.72-.81-1.12-1.87-1.22-3.18-.09-1.31.19-2.84.84-4.58.48-1.67.68-2.98.62-3.9-.06-.93-.33-1.54-.81-1.84-.48-.3-1.14-.3-1.97,0-.84.3-1.79.81-2.87,1.53-1.55,1.08-3.14,2.25-4.75,3.51s-3.11,2.53-4.48,3.82c-1.37,1.29-2.6,2.53-3.67,3.73-1.07,1.2-1.85,2.22-2.33,3.05l-.89,1.98c-.12.24-.31.42-.58.54-.27.12-.55.18-.85.18s-.57-.04-.81-.13c-.24-.09-.33-.22-.27-.4.77-2.75,1.47-5.39,2.1-7.9.62-2.51,1.26-5.03,1.92-7.54Z" fill="url(#t)"/>
    <path d="M154.94,69.4c-1.74,2.45-3.73,4.89-5.96,7.34-2.23,2.45-4.63,4.75-7.21,6.92-.14.56-.26,1.12-.36,1.68-.1.56-.23,1.12-.36,1.68-.62,3.7-.79,6.88-.51,9.53.28,2.65,1.14,4.64,2.57,5.96,1.43,1.32,3.42,1.95,5.97,1.88,2.55-.07,5.77-1.02,9.68-2.84,2.16-1.05,4.38-2.26,6.64-3.62,2.27-1.36,4.48-2.78,6.64-4.25,2.16-1.47,4.24-2.95,6.22-4.46,1.99-1.5,3.82-2.88,5.49-4.14.35-.21.66-.45.94-.73.28-.28.7-.59,1.26-.94.49-.35.89-.3,1.2.15.32.45.26.86-.16,1.2-.14.14-.42.37-.84.68-.42.31-.87.68-1.36,1.1-1.67,1.26-3.5,2.64-5.49,4.14-1.99,1.5-4.08,3.01-6.28,4.51-2.2,1.5-4.44,2.94-6.75,4.3s-4.57,2.57-6.8,3.62c-5.44,2.45-9.78,3.61-13.03,3.48-3.25-.13-5.69-1.12-7.33-2.97-1.64-1.85-2.57-4.32-2.79-7.43-.21-3.1-.03-6.44.56-10,.59-3.56,1.47-7.14,2.65-10.74,1.18-3.6,2.36-6.79,3.54-9.59-3.7.57-7.31,1.09-10.83,1.59-3.52.49-6.73.9-9.63,1.22-2.89.32-5.37.52-7.43.59-2.06.07-3.47-.06-4.24-.41-.49-.21-.66-.59-.52-1.15.21-.49.59-.66,1.15-.53.7.28,2.08.38,4.14.31,2.06-.07,4.55-.29,7.48-.64,2.93-.35,6.19-.79,9.79-1.32,3.59-.53,7.24-1.07,10.94-1.64,1.53-3.14,3.1-5.69,4.7-7.65,1.6-1.96,3.17-3.42,4.7-4.4,1.05-.7,2.11-1.15,3.19-1.37,1.08-.21,2.02-.16,2.83.15.8.31,1.43.89,1.89,1.72.45.84.61,1.99.48,3.45-.21,1.47-.87,3.39-1.98,5.76,2.65-.35,5.15-.67,7.48-.95,2.34-.28,4.36-.46,6.07-.53,1.71-.07,3.1-.02,4.19.15,1.08.17,1.69.47,1.83.89.28.77-.77,1.76-3.14,2.99-2.37,1.23-6.42,2.89-12.14,4.99-.56.28-.93.14-1.1-.42-.18-.56-.02-.98.47-1.26,5.09-1.89,8.67-3.24,10.72-4.05,2.06-.8,3.02-1.35,2.88-1.63-.14-.35-1.9-.35-5.29,0-3.39.36-7.73.92-13.03,1.69-.49.98-1.04,1.96-1.67,2.93-.63.98-1.32,1.99-2.09,3.04ZM142.5,80.62c2.16-1.96,4.16-3.99,6.01-6.08,1.85-2.1,3.54-4.16,5.07-6.18.56-.77,1.08-1.54,1.57-2.31.49-.77.94-1.54,1.36-2.31-1.4.21-2.79.42-4.19.63-1.4.21-2.79.42-4.19.63-.28.56-.45.98-.52,1.26-.97,2.1-1.9,4.38-2.76,6.86-.87,2.48-1.65,4.98-2.34,7.49ZM157.65,61.86c1.32-2.65,2.09-4.75,2.29-6.29.14-1.19-.04-2.06-.53-2.62-.49-.56-1.43-.45-2.83.32-1.12.7-2.32,1.85-3.61,3.46-1.29,1.61-2.63,3.74-4.02,6.39,1.53-.21,3.02-.42,4.45-.63,1.43-.21,2.84-.42,4.24-.63Z" fill="url(#u)"/>
    <path d="M199.64,79.49c.3-.6.54-1.17.72-1.71.18-.54.33-1.05.45-1.53-.06-.18.04-.42.31-.72.27-.3.61-.52,1.03-.67.42-.15.84-.19,1.26-.14.42.06.79.31,1.12.76.33.45.54,1.18.63,2.2.09,1.02.02,2.39-.22,4.13-.12.84-.25,1.75-.4,2.74-.15.99-.25,1.97-.31,2.96-.06.99-.03,1.9.09,2.74.12.84.36,1.52.72,2.06.66,1.08,1.8,1.64,3.41,1.7,2.33-.18,4.68-.71,7.04-1.58,2.36-.87,4.69-1.91,6.99-3.11,2.3-1.2,4.53-2.49,6.68-3.87,2.15-1.38,4.18-2.7,6.09-3.96.42-.3.76-.24,1.03.18.27.42.19.78-.22,1.08-1.73,1.14-3.8,2.46-6.19,3.96-2.39,1.5-4.9,2.91-7.53,4.23-2.63,1.32-5.28,2.43-7.94,3.33-2.66.9-5.1,1.35-7.31,1.36-2.27-.06-3.87-.67-4.8-1.83-.93-1.17-1.5-2.58-1.71-4.26-.21-1.67-.18-3.44.08-5.29.27-1.85.49-3.5.67-4.94-.54,1.32-1.21,2.68-2.01,4.09-.81,1.41-1.7,2.77-2.69,4.09-.98,1.32-2.05,2.5-3.18,3.55-1.14,1.05-2.33,1.87-3.59,2.47-1.14.54-2.17.81-3.09.81s-1.69-.22-2.29-.67c-.6-.45-1.02-1.13-1.26-2.06-.24-.93-.21-2.05.08-3.36.18-.9.51-1.87.98-2.92.48-1.05,1.1-2.05,1.88-3.01.78-.96,1.69-1.84,2.73-2.65,1.04-.81,2.22-1.42,3.54-1.84,1.2-.36,2.51-.47,3.95-.32,1.44.15,2.51.82,3.23,2.01ZM198.74,81.38c-.12-.96-.44-1.6-.94-1.93-.51-.33-1.09-.46-1.75-.4-.66.06-1.33.26-2.02.59-.69.33-1.3.67-1.84,1.03-.84.6-1.61,1.33-2.33,2.2-.72.87-1.36,1.78-1.92,2.74-.57.96-1.01,1.89-1.34,2.78-.33.9-.52,1.65-.58,2.24-.06.72.05,1.21.32,1.48s.61.43,1.03.49c.42.06.87,0,1.35-.18.48-.18.93-.36,1.35-.54.9-.42,1.78-1.08,2.64-1.98.87-.9,1.69-1.87,2.46-2.92.78-1.05,1.48-2.07,2.1-3.05s1.12-1.84,1.48-2.56Z" fill="url(#v)"/>
    <path d="M255.53,78.15c.41-1.05.89-1.78,1.43-2.2.54-.42,1.04-.56,1.48-.42.44.14.84.52,1.18,1.15.34.63.51,1.43.52,2.41-.2,5.72-.84,10.82-1.92,15.29,4.6-1.54,8.95-3.15,13.03-4.84,4.08-1.68,7.59-3.78,10.51-6.3.42-.35.82-.3,1.2.15.38.45.37.86-.05,1.2-3.21,2.73-6.99,4.97-11.35,6.72-4.36,1.75-8.98,3.43-13.85,5.05-1.15,3.98-2.69,7.87-4.6,11.68-1.91,3.81-4.23,7.26-6.94,10.38-2.72,3.11-5.8,5.71-9.25,7.81-3.45,2.1-7.27,3.47-11.46,4.1-3.7.56-6.44.27-8.22-.88-1.78-1.15-2.79-2.72-3.04-4.71-.25-1.99.15-4.15,1.19-6.49,1.04-2.34,2.54-4.42,4.49-6.24,2.16-1.96,4.55-3.72,7.16-5.3,2.61-1.57,5.35-2.99,8.21-4.25,2.86-1.26,5.82-2.42,8.89-3.47,3.07-1.05,6.14-2.07,9.21-3.05.55-2.23,1.04-4.57,1.46-7.02.41-2.44.69-5.03.83-7.75-.7.98-1.6,2.06-2.72,3.25-1.12,1.19-2.34,2.32-3.66,3.41-1.32,1.09-2.65,2.05-3.97,2.89-1.33.84-2.55,1.4-3.66,1.68-1.88.56-3.32.48-4.29-.26-.98-.73-1.59-1.78-1.84-3.14-.25-1.36-.13-2.9.36-4.61.49-1.71,1.27-3.28,2.35-4.71,1.08-1.43,2.42-2.57,4.03-3.41,1.6-.84,3.42-1.09,5.44-.74,1.4.28,2.65.9,3.77,1.88,1.12.98,1.75,2.27,1.89,3.87.84-1.05,1.57-2.1,2.19-3.14ZM252.73,98.04c-5.86,1.89-11.56,3.98-17.11,6.26-5.55,2.28-10.37,5.3-14.49,9.08-2.02,1.89-3.47,3.9-4.34,6.03-.87,2.13-1.11,3.98-.72,5.55.39,1.57,1.47,2.68,3.25,3.35,1.78.66,4.38.43,7.8-.69,3.28-1.05,6.28-2.59,9-4.62,2.72-2.03,5.16-4.37,7.32-7.03,2.16-2.66,4-5.52,5.54-8.59,1.53-3.07,2.78-6.18,3.75-9.32ZM251.56,83.39c.42-2.16.15-3.7-.79-4.61-.94-.9-2.15-1.25-3.61-1.04-1.12.14-2.2.62-3.24,1.42-1.05.8-1.95,1.77-2.72,2.88-.77,1.12-1.38,2.25-1.83,3.41-.45,1.15-.68,2.18-.68,3.09s.28,1.55.84,1.94c.56.38,1.43.33,2.62-.16.7-.28,1.48-.7,2.35-1.26.87-.56,1.73-1.15,2.56-1.78.84-.63,1.66-1.29,2.46-1.99.8-.7,1.48-1.33,2.04-1.89Z" fill="url(#w)"/>
    <path d="M286.32,83.86c-1.25,1.54-2.07,3.06-2.45,4.56-.38,1.5-.35,2.86.11,4.08.46,1.22,1.31,2.27,2.57,3.14,1.26.87,2.9,1.45,4.92,1.72,1.05.14,2.3.09,3.77-.16,1.47-.25,2.96-.56,4.5-.95,1.53-.39,3.02-.81,4.45-1.26,1.43-.46,2.67-.86,3.71-1.21,2.37-.84,4.71-1.72,7.01-2.63,2.3-.91,4.46-1.84,6.49-2.78,2.02-.95,3.87-1.87,5.54-2.78,1.67-.91,3.07-1.71,4.18-2.41.56-.28.96-.17,1.2.31.24.49.16.91-.26,1.26-1.19.7-2.61,1.49-4.29,2.36-1.67.88-3.54,1.8-5.6,2.78-2.06.98-4.26,1.94-6.59,2.89-2.34.95-4.69,1.84-7.06,2.68-2.93.98-5.95,1.89-9.05,2.74-3.11.84-6.23,1.2-9.37,1.06-3.07-.06-5.45-.67-7.12-1.82-1.68-1.15-2.78-2.56-3.3-4.23-.53-1.67-.54-3.47-.06-5.39.49-1.92,1.37-3.75,2.66-5.5,1.29-1.75,2.89-3.23,4.81-4.46,1.92-1.22,4.03-1.98,6.33-2.26,1.74-.21,3.3-.21,4.66,0,1.36.21,2.36.56,2.99,1.04.63.49.84,1.1.63,1.83s-.98,1.49-2.3,2.25c-2.02,1.19-4.13,1.98-6.33,2.37-2.2.39-4.45.65-6.75.8ZM288.2,81.87c1.53-.14,3.4-.39,5.6-.74,2.2-.35,3.99-.91,5.39-1.68.7-.42,1.01-.79.94-1.1-.07-.31-.35-.54-.84-.68-.49-.14-1.15-.17-1.99-.1-.84.07-1.71.28-2.62.63-1.33.49-2.51,1.03-3.56,1.63-1.05.6-2.02,1.28-2.93,2.05Z" fill="url(#x)"/>
    <path d="M96.29,18.77c3.31,0,5.64,1.78,7.02,5.34.27.81.2,1.48-.2,2.01-.4.53-.75.39-1.06-.42-1.06-2.84-2.98-4.25-5.76-4.25-1.94,0-6.68,1.59-14.21,4.77-8.46,3.5-14.3,5.5-17.51,5.99-1.05,6.49-2.69,13.74-4.93,21.73-2.24,7.99-4.67,15.64-7.3,22.95-2.9,7.87-5.86,14.85-8.89,20.94,0,.08-.02.12-.07.12l-.07.12c-5.45,10.96-10,16.44-13.66,16.45-1.54,0-2.75-.95-3.61-2.85s-1.3-4.56-1.3-7.97c0-4.62.36-10.99,1.09-19.11.74-8.11,1.45-15.03,2.15-20.75.7-5.72,1.7-13.57,3.01-23.55,2.48-19.31,3.72-30.71,3.72-34.2,0-.57-.05-.99-.13-1.28-.09-.28-.18-.44-.27-.49-.09-.04-.24-.06-.46-.06-.93,0-2.11.65-3.57,1.95l-.07.12h-.07c-1.67,1.63-4.42,4.63-8.25,9.02-2.68,3.01-4.73,5.26-6.14,6.76-1.41,1.5-3,2.99-4.79,4.45-1.78,1.46-3.16,2.2-4.13,2.2-1.19,0-2.28-.38-3.27-1.15-.99-.77-1.8-1.88-2.42-3.34-.62-1.46-1-3.16-1.13-5.11-.09-.89.12-1.4.63-1.52.51-.12.8.26.89,1.15.18,2.19.74,3.95,1.69,5.29.95,1.34,2.15,2,3.61,2,.66,0,1.5-.37,2.51-1.1,1.01-.73,2.27-1.85,3.76-3.35,1.5-1.5,2.74-2.8,3.73-3.9.99-1.1,2.41-2.7,4.26-4.81,3.92-4.39,6.71-7.43,8.38-9.14h.07s.07,0,.07,0C32.21,1.26,34.15,0,35.43,0c1.1,0,1.96.53,2.58,1.58.62,1.05.93,2.51.93,4.38,0,5.11-1.51,19.64-4.56,43.57-.87,7.14-1.55,12.62-2.02,16.43-.48,3.82-1.03,8.52-1.66,14.12-.63,5.6-1.09,10.28-1.37,14.06-.28,3.77-.42,6.96-.41,9.55,0,2.19.19,3.69.57,4.5.38.81.94,1.22,1.69,1.21,1.32,0,3.04-1.36,5.15-4.08,2.11-2.72,4.02-5.66,5.74-8.83,2.99-5.93,6-12.99,9.03-21.19,5.79-15.83,9.76-30.15,11.9-42.97h-.4c-1.1,0-2.22-.52-3.34-1.58-1.13-1.05-2.1-2.69-2.92-4.92-.82-2.23-1.23-4.8-1.24-7.73,0-4.06.54-7.16,1.64-9.31,1.1-2.15,2.38-3.23,3.83-3.23.53,0,1.04.16,1.52.48.49.32,1.03.93,1.62,1.82.6.89,1.08,2.37,1.46,4.44.38,2.07.57,4.6.57,7.6,0,2.68-.23,5.8-.71,9.37,3.13-.49,8.7-2.41,16.72-5.75,7.62-3.18,12.47-4.76,14.54-4.77ZM63.44,29.53c.52-3.81.78-7.02.78-9.61-.01-7.71-1.23-11.56-3.65-11.55-.97,0-1.87.77-2.71,2.32-.84,1.54-1.25,4.02-1.24,7.42s.65,6.17,1.93,8.27c1.28,2.11,2.63,3.16,4.04,3.16h.86Z" fill="url(#y)"/>
  </g>
  <g>
    <path d="M198.32,141.34c2.07,1.59,4.13,3.22,6.25,4.75.31.23.97.08,1.43-.03,1.58-.38,2.95-.07,3.83,1.33.81,1.3.86,2.89-.37,3.79-.91.67-2.43,1.03-3.54.82-1.59-.31-2.07-1.78-2.06-3.42,0-.65-.36-1.48-.84-1.91-1.27-1.15-2.9-1.94-4.03-3.2-2.67-2.98-5.92-2.42-9.59-1.97,6.05,3.46,8.7,8.71,9.75,15.28-3.94.08-7.05-1.41-9.63-3.85-2.91-2.74-5.22-5.81-3.88-10.31.31-1.05-.04-2.37-.33-3.51-.83-3.31.01-6.22,2.23-8.65,2.12-2.31,4.49-4.39,6.77-6.59,3.25,4.01,1.61,9.83-4.32,16.12,3.38-.14,6.68.35,9.36-2.26.88-.86,2.07-1.41,3.16-2.03,1.41-.81,2.76-1.42,2.77-3.55,0-1.59,2.04-2.62,3.61-2.27,1.73.38,2.86,1.99,2.58,3.68-.28,1.72-2.05,3.31-3.55,2.6-2.6-1.24-4.18.37-6.03,1.44-.84.49-1.62,1.08-2.36,1.86,3.78-.3,7.5.96,11.29-1.05,5.93-3.14,14.97-1.1,19.6,3.89.17.18.24.44.47.89-3,1.97-6.3,3-9.71,2.99-4.54-.01-8.96-.85-12.17-4.68-.34-.4-1.15-.55-1.75-.56-2.91-.06-5.81-.03-8.72-.03l-.21.43ZM220.11,141.13c-.02.22-.05.44-.07.67-3.06-.26-6.13-.52-9.63-.82,4.33,4.42,13.02,5.08,18.29,1.79-4.22-4.33-13.05-5.95-16.97-3.12,2.77.6,5.79.04,8.38,1.47ZM197.52,155.29c-1.19-5.56-3.66-9.91-8.85-12.29.9,1.59,2.03,3.02,3.03,4.54.28.43.2,1.1.29,1.66-.44-.3-.99-.52-1.31-.92-1.22-1.51-2.36-3.08-3.66-4.8-1.52,4.73,4.29,11.15,10.5,11.82ZM187.8,139c5.13-1.67,7.94-7.74,6.22-12.69-4.97,3.84-8.8,7.71-7.36,11.71,1.72-1.76,1.9-4.74,4.27-5.97.18.11.36.23.54.34-1.17,2.11-2.35,4.23-3.67,6.6ZM207,151.83c.95-1.23,1.93-1.94,1.89-2.61-.04-.7-.94-1.72-1.66-1.92-1.19-.34-2.1.61-1.99,1.77.07.77.89,1.46,1.75,2.75ZM211.01,132.97c-1.28-.85-1.98-1.68-2.75-1.76-1.16-.12-2.12.8-1.79,1.98.2.71,1.23,1.62,1.92,1.64.68.03,1.4-.94,2.62-1.87Z" fill="url(#z)"/>
    <path d="M146.88,141.33c-3.86-.74-7.14-.74-9.82,2.17-.79.87-1.84,1.5-2.81,2.2-1.17.85-2.22,1.53-1.9,3.43.3,1.77-1.57,3.13-3.42,2.96-1.83-.17-3.05-1.71-2.85-3.61.18-1.73,1.8-3.26,3.45-2.7,1.83.62,2.84-.23,4.02-1.19,1.43-1.16,2.9-2.26,4.28-3.85-3.31,0-6.61-.01-9.92.03-.25,0-.52.38-.72.63-4.52,5.48-14.93,5.96-21.39,1.74-.1-.06-.14-.22-.37-.62.85-.69,1.69-1.5,2.64-2.13,6.15-4.02,12.5-5.22,19.2-1.3.27.16.61.27.92.27,2.88.02,5.76.01,8.78-.37-1.94-1.19-3.85-2.43-5.84-3.53-.37-.2-1.08.09-1.59.28-1.52.56-3.1.53-3.88-.91-.53-1-.61-2.54-.26-3.63.44-1.38,1.89-1.77,3.32-1.48,1.65.33,2.36,1.46,2.61,3.08.1.64.56,1.37,1.08,1.77,1.15.88,2.6,1.4,3.65,2.37,2.93,2.71,6.4,3.15,10.37,2.67-2.55-1.87-4.59-4.04-5.48-7.05-.87-2.95-.59-5.83.58-8.91.61.39,1.08.59,1.43.93,1.83,1.72,3.7,3.41,5.43,5.23,2.44,2.55,3.4,5.53,2.67,9.11-.32,1.59.1,3.32-.06,4.96-.15,1.61-.29,3.36-1.01,4.75-2.34,4.51-6.2,7.08-11.21,7.96-1.24.22-1.75-.02-1.44-1.41,1.29-5.77,3.88-10.65,9.51-13.84ZM107.69,142.52c4.97,3.41,15.33,2.51,17.85-1.75-3.19.28-6.24.55-9.29.82-.04-.34-.08-.67-.11-1.01,2.87-.4,5.74-.81,8.79-1.23-5.59-2.52-13.03-1.09-17.24,3.17ZM149.43,143.24c-1.73,2.13-3.29,4.05-4.85,5.97l-.78-.61c1.36-1.94,2.72-3.89,4.23-6.05-4.76,1.79-8.86,7.7-8.95,12.53,6.07-.85,11.62-6.9,10.35-11.84ZM148.72,139.13c-1.47-2.67-2.66-4.85-3.85-7.02l.7-.43c2,1.55,2.54,4.26,4.2,6.31,1.14-4.24-2.2-7.96-7.53-11.87-1.38,5.46.81,10.14,6.49,13.01ZM128.09,130.12c-.92,1.26-1.97,2.1-1.85,2.67.17.77,1.25,1.34,1.94,1.99.6-.67,1.61-1.29,1.67-2.01.06-.67-.89-1.42-1.77-2.66ZM132.01,148.83c-1.29-.87-2.06-1.8-2.74-1.73-.7.07-1.3,1.11-1.94,1.73.67.66,1.26,1.72,2.02,1.85.6.11,1.4-.92,2.66-1.85Z" fill="url(#aa)"/>
    <path d="M174.23,145.86c-3.75-2.05-7.36-.88-11.06-.67-8.07.46-10.53-7.21-9.04-12.5,1.27-4.54,8.02-7.03,12.32-4.68,1.14.62,1.95.79,3.19.16,4.54-2.28,8.96-1.05,11.59,3.02,2.61,4.05,1.95,9.4-1.82,12.33-1.43,1.11-3.37,1.56-5.18,2.35ZM165.75,130.87c-2.53-1.73-5.73-1.2-7.98,1.31-1.84,2.05-1.65,5.78.41,8.22,1.89,2.24,5.31,2.68,7.92.97-1.21-3.45-2.08-6.95-.35-10.5ZM170.43,141.32c3.33,1.92,6.56,1.29,8.56-1.53,1.79-2.53,1.17-6.11-1.43-8.36-2.37-2.05-5.23-2.12-7.24-.16,2.09,3.27,1.88,6.6.11,10.05ZM167.62,142.49c-.82.11-1.19.09-1.52.21-5.58,1.95-9.76-.73-10.34-6.64-.41-4.2,4.38-8.13,8.44-6.92,4.49,1.33,6.57,5.31,5.16,9.78-.14.45-.11.95-.16,1.43,2.99-3.68,2.16-7.97-1.8-11.06-3.19-2.49-8.42-1.67-11.39,1.77-2.36,2.74-1.71,8.34,1.17,11.26,2.03,2.05,7.32,3.24,10.43.16ZM167.18,131.33c-2.72,2.57-2.11,7.83.95,10.9,2.93,2.94,8.38,3.02,11.15.17,3.42-3.52,3.52-9.09.21-12.15-3.19-2.94-8.03-3.17-10.34-.29.64-.02,1.25-.16,1.83-.38,4.17-1.57,8.39.48,9.64,4.68,1.09,3.68-1.37,8.18-4.89,8.96-4.42.97-8.26-1.66-8.79-6.18-.16-1.4.16-2.86.24-4.29.02-.39,0-.78,0-1.43ZM167.79,138.58c1.47-2.06,1.4-3.48,0-5.36v5.36Z" fill="url(#ab)"/>
  </g>
</svg>